<svg width="22" height="22" viewBox="0 0 22 22" fill="none" xmlns="http://www.w3.org/2000/svg">
    <path d="M15.875 9.375H12.625V6.125C12.625 5.69402 12.4538 5.2807 12.149 4.97595C11.8443 4.6712 11.431 4.5 11 4.5C10.569 4.5 10.1557 4.6712 9.85095 4.97595C9.54621 5.2807 9.375 5.69402 9.375 6.125L9.43269 9.375H6.125C5.69402 9.375 5.2807 9.54621 4.97595 9.85095C4.6712 10.1557 4.5 10.569 4.5 11C4.5 11.431 4.6712 11.8443 4.97595 12.149C5.2807 12.4538 5.69402 12.625 6.125 12.625L9.43269 12.5673L9.375 15.875C9.375 16.306 9.54621 16.7193 9.85095 17.024C10.1557 17.3288 10.569 17.5 11 17.5C11.431 17.5 11.8443 17.3288 12.149 17.024C12.4538 16.7193 12.625 16.306 12.625 15.875V12.5673L15.875 12.625C16.306 12.625 16.7193 12.4538 17.024 12.149C17.3288 11.8443 17.5 11.431 17.5 11C17.5 10.569 17.3288 10.1557 17.024 9.85095C16.7193 9.54621 16.306 9.375 15.875 9.375Z"
          fill="black"/>
</svg>
