<svg width="60" height="60" viewBox="0 0 60 60" fill="none" xmlns="http://www.w3.org/2000/svg">
<path opacity="0.4" d="M30 5C16.2 5 5 16.2 5 30C5 43.8 16.2 55 30 55C43.8 55 55 43.8 55 30C55 16.2 43.8 5 30 5Z" fill="#0F172A"/>
<path d="M43.1137 20.9584C42.6968 25.3503 40.89 36.0241 39.9727 40.944C39.5836 43.0287 38.8053 43.7236 38.0826 43.807C36.4704 43.946 35.2473 42.7508 33.6907 41.7223C31.2447 40.1101 29.8548 39.1095 27.4922 37.5529C24.7403 35.7461 26.5193 34.7454 28.1037 33.1332C28.5206 32.7163 35.6365 26.2397 35.7755 25.656C35.7948 25.5676 35.7922 25.4758 35.768 25.3886C35.7438 25.3014 35.6986 25.2215 35.6365 25.1557C35.4697 25.0167 35.2473 25.0723 35.0528 25.1001C34.8026 25.1557 30.9111 27.7407 23.3227 32.8553C22.2109 33.6058 21.2102 33.9949 20.3207 33.9671C19.32 33.9393 17.4299 33.4112 16.0123 32.9387C14.2611 32.3827 12.8991 32.077 13.0103 31.1041C13.0659 30.6038 13.7608 30.1034 15.0672 29.5753C23.1837 26.0452 28.5762 23.7103 31.2725 22.5984C38.9998 19.374 40.5842 18.8181 41.6405 18.8181C41.8629 18.8181 42.391 18.8737 42.7246 19.1517C43.0025 19.374 43.0859 19.6798 43.1137 19.9022C43.0859 20.069 43.1415 20.5693 43.1137 20.9584Z" fill="#0F172A"/>
<path d="M43.1137 20.9584C42.6968 25.3503 40.89 36.0241 39.9727 40.944C39.5836 43.0287 38.8053 43.7236 38.0826 43.807C36.4704 43.946 35.2473 42.7508 33.6907 41.7223C31.2447 40.1101 29.8548 39.1095 27.4922 37.5529C24.7403 35.7461 26.5193 34.7454 28.1037 33.1332C28.5206 32.7163 35.6365 26.2397 35.7755 25.656C35.7948 25.5676 35.7922 25.4758 35.768 25.3886C35.7438 25.3014 35.6986 25.2215 35.6365 25.1557C35.4697 25.0167 35.2473 25.0723 35.0528 25.1001C34.8026 25.1557 30.9111 27.7407 23.3227 32.8553C22.2109 33.6058 21.2102 33.9949 20.3207 33.9671C19.32 33.9393 17.4299 33.4112 16.0123 32.9387C14.2611 32.3827 12.8991 32.077 13.0103 31.1041C13.0659 30.6038 13.7608 30.1034 15.0672 29.5753C23.1837 26.0452 28.5762 23.7103 31.2725 22.5984C38.9998 19.374 40.5842 18.8181 41.6405 18.8181C41.8629 18.8181 42.391 18.8737 42.7246 19.1517C43.0025 19.374 43.0859 19.6798 43.1137 19.9022C43.0859 20.069 43.1415 20.5693 43.1137 20.9584Z" fill="#0F172A"/>
</svg>
