<svg width="181" height="40" viewBox="0 0 181 40" fill="none" xmlns="http://www.w3.org/2000/svg">
    <path fill-rule="evenodd" clip-rule="evenodd"
          d="M6.03135 33.6198C9.77334 37.3768 14.298 39.2552 19.6054 39.2552L44.2273 39.2563C49.379 39.1658 53.7797 37.29 57.4292 33.6288C61.1652 29.8808 63.0347 25.3395 63.0377 20.005C63.0407 14.6704 61.1727 10.1261 57.4337 6.37217C53.6947 2.61821 49.1715 0.741225 43.8641 0.741225L19.6098 0.741225C14.2965 0.735238 9.77035 2.61372 6.03135 6.37666C2.29235 10.1396 0.422852 14.6824 0.422852 20.005C0.422852 25.3276 2.29235 29.8658 6.03135 33.6198ZM19.6467 26.2855C22.9835 26.2855 25.6885 23.5755 25.6885 20.2326C25.6885 16.8897 22.9835 14.1797 19.6467 14.1797C16.3099 14.1797 13.6049 16.8897 13.6049 20.2326C13.6049 23.5755 16.3099 26.2855 19.6467 26.2855ZM43.8138 26.2855C47.1506 26.2855 49.8556 23.5755 49.8556 20.2326C49.8556 16.8897 47.1506 14.1797 43.8138 14.1797C40.4771 14.1797 37.7721 16.8897 37.7721 20.2326C37.7721 23.5755 40.4771 26.2855 43.8138 26.2855Z"
          fill="#0F172A"/>
    <path d="M174.974 6.37215C171.235 2.61819 166.711 0.741211 161.404 0.741211H43.8639C49.1712 0.741211 53.6944 2.61819 57.4334 6.37215C61.1724 10.1261 63.0404 14.6704 63.0374 20.005C63.0344 25.3395 61.1649 29.8808 57.4289 33.6288C53.7794 37.29 49.3788 39.1658 44.227 39.2563L161.4 39.2597C166.71 39.2537 171.233 37.3767 174.969 33.6288C178.705 29.8808 180.575 25.3395 180.578 20.005C180.581 14.6704 178.713 10.1261 174.974 6.37215Z"
          fill="#E7E7E9"/>
    <path d="M73.9834 14.002C75.2783 14.002 76.4361 14.2877 77.457 14.8591C78.4904 15.4184 79.2997 16.2027 79.8848 17.2118C80.47 18.2088 80.7626 19.3395 80.7626 20.604C80.7626 21.8685 80.47 23.0053 79.8848 24.0144C79.2997 25.0114 78.4904 25.7956 77.457 26.3671C76.4361 26.9264 75.2783 27.206 73.9834 27.206C72.8256 27.206 71.7798 27.0115 70.846 26.6224C69.9247 26.2333 69.1528 25.668 68.5303 24.9263L70.4538 23.1755C71.3751 24.1847 72.5019 24.6892 73.834 24.6892C74.7927 24.6892 75.602 24.4157 76.2618 23.8685C76.9341 23.3214 77.3699 22.5858 77.5691 21.6618H72.2653V19.4003H77.5317C77.3201 18.5249 76.8843 17.8258 76.2245 17.303C75.5646 16.7802 74.7678 16.5188 73.834 16.5188C72.5019 16.5188 71.3751 17.0233 70.4538 18.0325L68.5303 16.2817C69.1528 15.54 69.9247 14.9747 70.846 14.5856C71.7798 14.1965 72.8256 14.002 73.9834 14.002Z"
          fill="#0F172A"/>
    <path d="M88.5663 21.8442H86.4747V26.9872H83.468V14.2208H86.4747V19.3821H88.641L92.0773 14.2208H95.2707L90.9941 20.3851L95.4015 26.9872H91.9652L88.5663 21.8442Z"
          fill="#0F172A"/>
    <path d="M104.133 20.3304C104.892 20.5858 105.483 20.987 105.907 21.5341C106.342 22.0691 106.56 22.6952 106.56 23.4126C106.56 24.1907 106.299 24.8655 105.776 25.437C105.253 26.0084 104.543 26.4461 103.647 26.7501C102.763 27.054 101.792 27.206 100.734 27.206C99.8373 27.206 98.9409 27.0966 98.0445 26.8777C97.1605 26.6589 96.3201 26.3245 95.5233 25.8747L96.4571 23.7591C97.0298 24.0995 97.6585 24.361 98.3433 24.5433C99.0405 24.7135 99.719 24.7987 100.379 24.7987C101.275 24.7987 102.016 24.6406 102.601 24.3245C103.199 24.0084 103.498 23.5646 103.498 22.9931C103.498 22.5189 103.292 22.1603 102.881 21.9171C102.483 21.6739 101.935 21.5524 101.238 21.5524H98.0445V19.3274H101.014C101.624 19.3274 102.097 19.2058 102.433 18.9626C102.782 18.7194 102.956 18.3851 102.956 17.9595C102.956 17.461 102.707 17.072 102.209 16.7923C101.723 16.5127 101.095 16.3729 100.323 16.3729C99.7501 16.3729 99.1587 16.4519 98.5487 16.61C97.9386 16.7559 97.3597 16.9808 96.8119 17.2848L95.8968 14.9868C97.2788 14.2938 98.7728 13.9473 100.379 13.9473C101.4 13.9473 102.34 14.0932 103.199 14.385C104.058 14.6768 104.743 15.1023 105.253 15.6616C105.764 16.2209 106.019 16.8714 106.019 17.613C106.019 18.2209 105.851 18.762 105.515 19.2362C105.178 19.7104 104.718 20.0751 104.133 20.3304Z"
          fill="#0F172A"/>
    <path d="M118.181 24.2515H112.112L110.954 26.9872H107.854L113.68 14.2208H116.668L122.514 26.9872H119.339L118.181 24.2515ZM117.229 22.0083L115.156 17.1206L113.083 22.0083H117.229Z"
          fill="#0F172A"/>
    <path d="M136.517 26.9872L136.498 19.3456L132.651 25.6376H131.307L127.459 19.4915V26.9872H124.621V14.2208H127.123L132.016 22.1542L136.834 14.2208H139.337L139.356 26.9872H136.517Z"
          fill="#0F172A"/>
    <path d="M148.038 21.8442H145.946V26.9872H142.939V14.2208H145.946V19.3821H148.112L151.548 14.2208H154.742L150.465 20.3851L154.873 26.9872H151.436L148.038 21.8442Z"
          fill="#0F172A"/>
    <path d="M165.26 24.2515H159.191L158.033 26.9872H154.933L160.759 14.2208H163.747L169.593 26.9872H166.418L165.26 24.2515ZM164.308 22.0083L162.235 17.1206L160.162 22.0083H164.308Z"
          fill="#0F172A"/>
</svg>
