<svg width="22" height="22" viewBox="0 0 22 22" fill="none" xmlns="http://www.w3.org/2000/svg">
    <path fill-rule="evenodd" clip-rule="evenodd"
          d="M9.47133 4.60596C9 5.02396 9 5.78863 9 7.31729V14.6826C9 16.2113 9 16.976 9.47133 17.394C9.94267 17.812 10.6633 17.6866 12.1047 17.4353L13.658 17.1646C15.254 16.886 16.052 16.7466 16.526 16.1613C17 15.5753 17 14.7286 17 13.0346V8.96529C17 7.27196 17 6.42529 16.5267 5.83929C16.052 5.25396 15.2533 5.11463 13.6573 4.83663L12.1053 4.56529C10.664 4.31396 9.94333 4.18863 9.472 4.60663M11 9.77929C11.276 9.77929 11.5 10.0133 11.5 10.302V11.698C11.5 11.9866 11.276 12.2206 11 12.2206C10.724 12.2206 10.5 11.9866 10.5 11.698V10.302C10.5 10.0133 10.724 9.77929 11 9.77929Z"
          fill="#0F172A"/>
    <path d="M8.03133 6C6.65933 6.002 5.944 6.032 5.488 6.488C5 6.976 5 7.76133 5 9.33333V12.6667C5 14.238 5 15.0233 5.488 15.512C5.944 15.9673 6.65933 15.998 8.03133 16C8 15.584 8 15.104 8 14.5847V7.41533C8 6.89533 8 6.41533 8.03133 6Z"
          fill="#0F172A"/>
</svg>
