<svg width="16" height="18" viewBox="0 0 16 18" fill="none" xmlns="http://www.w3.org/2000/svg">
    <path d="M8.00065 9.66634C8.36884 9.66634 8.66732 9.36786 8.66732 8.99967C8.66732 8.63148 8.36884 8.33301 8.00065 8.33301C7.63246 8.33301 7.33398 8.63148 7.33398 8.99967C7.33398 9.36786 7.63246 9.66634 8.00065 9.66634Z"
          fill="#757580" stroke="#757580" stroke-linecap="round" stroke-linejoin="round"/>
    <path d="M8.00065 5.00033C8.36884 5.00033 8.66732 4.70185 8.66732 4.33366C8.66732 3.96547 8.36884 3.66699 8.00065 3.66699C7.63246 3.66699 7.33398 3.96547 7.33398 4.33366C7.33398 4.70185 7.63246 5.00033 8.00065 5.00033Z"
          fill="#757580" stroke="#757580" stroke-linecap="round" stroke-linejoin="round"/>
    <path d="M8.00065 14.3333C8.36884 14.3333 8.66732 14.0349 8.66732 13.6667C8.66732 13.2985 8.36884 13 8.00065 13C7.63246 13 7.33398 13.2985 7.33398 13.6667C7.33398 14.0349 7.63246 14.3333 8.00065 14.3333Z"
          fill="#757580" stroke="#757580" stroke-linecap="round" stroke-linejoin="round"/>
</svg>