<svg width="16" height="16" viewBox="0 0 16 16" fill="none" xmlns="http://www.w3.org/2000/svg">
    <path d="M11.0203 2.55897C11.1792 2.40002 11.3679 2.27394 11.5756 2.18792C11.7833 2.10189 12.0059 2.05762 12.2306 2.05762C12.4554 2.05762 12.678 2.10189 12.8857 2.18792C13.0934 2.27394 13.2821 2.40002 13.441 2.55897C13.6 2.71792 13.7261 2.90663 13.8121 3.1143C13.8981 3.32198 13.9424 3.54457 13.9424 3.76936C13.9424 3.99415 13.8981 4.21673 13.8121 4.42441C13.7261 4.63209 13.6 4.82079 13.441 4.97974L5.27094 13.1498L1.94238 14.0576L2.85017 10.7291L11.0203 2.55897Z"
          stroke="#0F172A" stroke-width="1.5" stroke-linecap="round" stroke-linejoin="round"/>
</svg>
