<svg width="19" height="18" viewBox="0 0 19 18" fill="none" xmlns="http://www.w3.org/2000/svg">
    <g clip-path="url(#clip0_1210_1251)">
        <path d="M11.3145 16.5297H11.3125L11.3086 16.5189C11.3102 16.5226 11.3129 16.5259 11.3145 16.5297ZM11.8457 5.63416V5.63513C12.3425 6.89664 13.3103 7.91245 14.5381 8.47107L14.7871 8.57654L17.0693 9.47595L14.7871 10.3763C13.4415 10.9062 12.3756 11.9721 11.8457 13.3177L10.9463 15.6L10.0469 13.3177H10.0479C9.5511 12.0563 8.58322 11.0404 7.35547 10.4818L7.10645 10.3763L4.82324 9.47595L7.10645 8.57654C8.45202 8.04666 9.51699 6.97976 10.0469 5.63416L10.9463 3.35193L11.8457 5.63416Z"
              fill="white" stroke="white" stroke-width="1.5"/>
        <path d="M3.84863 2.82031V2.81934C3.9331 2.97474 4.05633 3.09092 4.18945 3.16699L4.19531 3.16992L4.20117 3.17383L5.04688 3.63574L4.20117 4.09863C4.05334 4.17933 3.93131 4.30138 3.85059 4.44922L3.3877 5.29492L2.9248 4.44922C2.84036 4.29463 2.71762 4.17933 2.58496 4.10352L2.5791 4.10059L2.57227 4.09668L1.72559 3.63379L2.57227 3.17188L2.57129 3.1709C2.71992 3.09 2.84197 2.96795 2.92285 2.81934L2.92383 2.82031L3.38574 1.97363L3.84863 2.82031Z"
              fill="white" stroke="white" stroke-width="1.5"/>
        <path d="M2.48073 17.1976L1.83847 16.0235C1.82828 16.0065 1.81468 15.9929 1.79769 15.9827L0.62361 15.3404C0.458797 15.2504 0.458797 15.0142 0.62361 14.9241L1.79769 14.2819C1.81468 14.2717 1.82827 14.2581 1.83847 14.2411L2.48073 13.067C2.57078 12.9022 2.80696 12.9022 2.89702 13.067L3.53928 14.2411C3.54948 14.2581 3.56307 14.2717 3.58006 14.2819L4.75414 14.9241C4.91896 15.0142 4.91896 15.2504 4.75414 15.3404L3.58006 15.9827C3.56307 15.9912 3.54948 16.0065 3.53928 16.0235L2.89702 17.1976C2.80697 17.3624 2.57079 17.3624 2.48073 17.1976Z"
              fill="white"/>
    </g>
    <defs>
        <clipPath id="clip0_1210_1251">
            <rect width="18" height="18" fill="white" transform="translate(0.5)"/>
        </clipPath>
    </defs>
</svg>
